<mxfile host="app.diagrams.net" modified="2021-09-18T01:40:45.055Z" agent="5.0 (Windows NT 10.0; Win64; x64) AppleWebKit/537.36 (KHTML, like Gecko) Chrome/93.0.4577.82 Safari/537.36" etag="jm9GHDyfiU-D-xUUd_6g" version="15.2.9" type="github" pages="4">
  <diagram id="czEcRzmZwzXHglQ_dWoc" name="DC">
    <mxGraphModel dx="1422" dy="1931" grid="1" gridSize="10" guides="1" tooltips="1" connect="1" arrows="1" fold="1" page="1" pageScale="1" pageWidth="827" pageHeight="1169" math="0" shadow="0">
      <root>
        <mxCell id="0" />
        <mxCell id="1" parent="0" />
        <mxCell id="BkyBGvqs4By1QXijaLyd-5" value="Usuario" style="swimlane;fontStyle=1;align=center;verticalAlign=top;childLayout=stackLayout;horizontal=1;startSize=26;horizontalStack=0;resizeParent=1;resizeParentMax=0;resizeLast=0;collapsible=1;marginBottom=0;" parent="1" vertex="1">
          <mxGeometry x="80" y="60" width="160" height="248" as="geometry" />
        </mxCell>
        <mxCell id="BkyBGvqs4By1QXijaLyd-6" value="ID:Int&#xa;nombre:String&#xa;edad:Int&#xa;rol:String&#xa;" style="text;strokeColor=none;fillColor=none;align=left;verticalAlign=top;spacingLeft=4;spacingRight=4;overflow=hidden;rotatable=0;points=[[0,0.5],[1,0.5]];portConstraint=eastwest;" parent="BkyBGvqs4By1QXijaLyd-5" vertex="1">
          <mxGeometry y="26" width="160" height="64" as="geometry" />
        </mxCell>
        <mxCell id="BkyBGvqs4By1QXijaLyd-7" value="" style="line;strokeWidth=1;fillColor=none;align=left;verticalAlign=middle;spacingTop=-1;spacingLeft=3;spacingRight=3;rotatable=0;labelPosition=right;points=[];portConstraint=eastwest;" parent="BkyBGvqs4By1QXijaLyd-5" vertex="1">
          <mxGeometry y="90" width="160" height="88" as="geometry" />
        </mxCell>
        <mxCell id="BkyBGvqs4By1QXijaLyd-8" value="+ Crear(): void&#xa;+Borrar(int):void&#xa;+Editar(int):void&#xa;" style="text;strokeColor=none;fillColor=none;align=left;verticalAlign=top;spacingLeft=4;spacingRight=4;overflow=hidden;rotatable=0;points=[[0,0.5],[1,0.5]];portConstraint=eastwest;" parent="BkyBGvqs4By1QXijaLyd-5" vertex="1">
          <mxGeometry y="178" width="160" height="70" as="geometry" />
        </mxCell>
        <mxCell id="BkyBGvqs4By1QXijaLyd-14" value="Extends" style="endArrow=block;endSize=16;endFill=0;html=1;exitX=0;exitY=0.5;exitDx=0;exitDy=0;" parent="1" source="BkyBGvqs4By1QXijaLyd-16" target="BkyBGvqs4By1QXijaLyd-5" edge="1">
          <mxGeometry width="160" relative="1" as="geometry">
            <mxPoint x="440" y="129" as="sourcePoint" />
            <mxPoint x="480" y="350" as="targetPoint" />
          </mxGeometry>
        </mxCell>
        <mxCell id="BkyBGvqs4By1QXijaLyd-15" value="Estudiante" style="swimlane;fontStyle=1;align=center;verticalAlign=top;childLayout=stackLayout;horizontal=1;startSize=26;horizontalStack=0;resizeParent=1;resizeParentMax=0;resizeLast=0;collapsible=1;marginBottom=0;" parent="1" vertex="1">
          <mxGeometry x="370" y="50" width="160" height="240" as="geometry" />
        </mxCell>
        <mxCell id="BkyBGvqs4By1QXijaLyd-16" value="id:int&#xa;nombre:String&#xa;codigoMateria:Int&#xa;codigoActividad:Int&#xa;nota:Float&#xa;codMateria[]:int&#xa;codActividad[]:int&#xa;actividad:String&#xa;&#xa;" style="text;strokeColor=none;fillColor=none;align=left;verticalAlign=top;spacingLeft=4;spacingRight=4;overflow=hidden;rotatable=0;points=[[0,0.5],[1,0.5]];portConstraint=eastwest;" parent="BkyBGvqs4By1QXijaLyd-15" vertex="1">
          <mxGeometry y="26" width="160" height="114" as="geometry" />
        </mxCell>
        <mxCell id="BkyBGvqs4By1QXijaLyd-17" value="" style="line;strokeWidth=1;fillColor=none;align=left;verticalAlign=middle;spacingTop=-1;spacingLeft=3;spacingRight=3;rotatable=0;labelPosition=right;points=[];portConstraint=eastwest;" parent="BkyBGvqs4By1QXijaLyd-15" vertex="1">
          <mxGeometry y="140" width="160" height="8" as="geometry" />
        </mxCell>
        <mxCell id="BkyBGvqs4By1QXijaLyd-18" value="+ConsularInfoPersonal():void&#xa;+ConsultarMaterias():void&#xa;&#xa;+ConsultarActividades():void&#xa;+CalcularPromedio():float&#xa;" style="text;strokeColor=none;fillColor=none;align=left;verticalAlign=top;spacingLeft=4;spacingRight=4;overflow=hidden;rotatable=0;points=[[0,0.5],[1,0.5]];portConstraint=eastwest;" parent="BkyBGvqs4By1QXijaLyd-15" vertex="1">
          <mxGeometry y="148" width="160" height="92" as="geometry" />
        </mxCell>
        <mxCell id="BkyBGvqs4By1QXijaLyd-19" value="Materia" style="swimlane;fontStyle=1;align=center;verticalAlign=top;childLayout=stackLayout;horizontal=1;startSize=26;horizontalStack=0;resizeParent=1;resizeParentMax=0;resizeLast=0;collapsible=1;marginBottom=0;" parent="1" vertex="1">
          <mxGeometry x="610" y="40" width="160" height="130" as="geometry" />
        </mxCell>
        <mxCell id="BkyBGvqs4By1QXijaLyd-20" value="+codMateria:int&#xa;+nomMateria:String&#xa;+idDocente:int&#xa;+CodActividades[]:int&#xa;" style="text;strokeColor=none;fillColor=none;align=left;verticalAlign=top;spacingLeft=4;spacingRight=4;overflow=hidden;rotatable=0;points=[[0,0.5],[1,0.5]];portConstraint=eastwest;" parent="BkyBGvqs4By1QXijaLyd-19" vertex="1">
          <mxGeometry y="26" width="160" height="64" as="geometry" />
        </mxCell>
        <mxCell id="BkyBGvqs4By1QXijaLyd-21" value="" style="line;strokeWidth=1;fillColor=none;align=left;verticalAlign=middle;spacingTop=-1;spacingLeft=3;spacingRight=3;rotatable=0;labelPosition=right;points=[];portConstraint=eastwest;" parent="BkyBGvqs4By1QXijaLyd-19" vertex="1">
          <mxGeometry y="90" width="160" height="40" as="geometry" />
        </mxCell>
        <mxCell id="BkyBGvqs4By1QXijaLyd-23" value="Actividad" style="swimlane;fontStyle=1;align=center;verticalAlign=top;childLayout=stackLayout;horizontal=1;startSize=26;horizontalStack=0;resizeParent=1;resizeParentMax=0;resizeLast=0;collapsible=1;marginBottom=0;" parent="1" vertex="1">
          <mxGeometry x="827" y="200" width="160" height="98" as="geometry" />
        </mxCell>
        <mxCell id="BkyBGvqs4By1QXijaLyd-24" value="+ codigoActividad: int&#xa;+descripcion:String&#xa;+CodMateria&#xa;&#xa;" style="text;strokeColor=none;fillColor=none;align=left;verticalAlign=top;spacingLeft=4;spacingRight=4;overflow=hidden;rotatable=0;points=[[0,0.5],[1,0.5]];portConstraint=eastwest;" parent="BkyBGvqs4By1QXijaLyd-23" vertex="1">
          <mxGeometry y="26" width="160" height="64" as="geometry" />
        </mxCell>
        <mxCell id="BkyBGvqs4By1QXijaLyd-25" value="" style="line;strokeWidth=1;fillColor=none;align=left;verticalAlign=middle;spacingTop=-1;spacingLeft=3;spacingRight=3;rotatable=0;labelPosition=right;points=[];portConstraint=eastwest;" parent="BkyBGvqs4By1QXijaLyd-23" vertex="1">
          <mxGeometry y="90" width="160" height="8" as="geometry" />
        </mxCell>
        <mxCell id="BkyBGvqs4By1QXijaLyd-27" value="Docente" style="swimlane;fontStyle=1;align=center;verticalAlign=top;childLayout=stackLayout;horizontal=1;startSize=26;horizontalStack=0;resizeParent=1;resizeParentMax=0;resizeLast=0;collapsible=1;marginBottom=0;" parent="1" vertex="1">
          <mxGeometry x="360" y="330" width="160" height="292" as="geometry" />
        </mxCell>
        <mxCell id="BkyBGvqs4By1QXijaLyd-28" value="id:String&#xa;idEstudiante:int&#xa;codigoMateria:Int&#xa;codigoActividad:Int&#xa;nota:Float&#xa;" style="text;strokeColor=none;fillColor=none;align=left;verticalAlign=top;spacingLeft=4;spacingRight=4;overflow=hidden;rotatable=0;points=[[0,0.5],[1,0.5]];portConstraint=eastwest;" parent="BkyBGvqs4By1QXijaLyd-27" vertex="1">
          <mxGeometry y="26" width="160" height="74" as="geometry" />
        </mxCell>
        <mxCell id="BkyBGvqs4By1QXijaLyd-29" value="" style="line;strokeWidth=1;fillColor=none;align=left;verticalAlign=middle;spacingTop=-1;spacingLeft=3;spacingRight=3;rotatable=0;labelPosition=right;points=[];portConstraint=eastwest;" parent="BkyBGvqs4By1QXijaLyd-27" vertex="1">
          <mxGeometry y="100" width="160" height="8" as="geometry" />
        </mxCell>
        <mxCell id="BkyBGvqs4By1QXijaLyd-30" value="+ AsignarActividad():void&#xa; +EliminarActividad():void&#xa;+CalificarActividad():void&#xa;" style="text;strokeColor=none;fillColor=none;align=left;verticalAlign=top;spacingLeft=4;spacingRight=4;overflow=hidden;rotatable=0;points=[[0,0.5],[1,0.5]];portConstraint=eastwest;" parent="BkyBGvqs4By1QXijaLyd-27" vertex="1">
          <mxGeometry y="108" width="160" height="92" as="geometry" />
        </mxCell>
        <mxCell id="ens4P5NGNurrFPPocclL-9" value="+ AsignarActividad():void&#xa; +EliminarActividad():void&#xa;+CalificarActividad():void&#xa;" style="text;strokeColor=none;fillColor=none;align=left;verticalAlign=top;spacingLeft=4;spacingRight=4;overflow=hidden;rotatable=0;points=[[0,0.5],[1,0.5]];portConstraint=eastwest;" parent="BkyBGvqs4By1QXijaLyd-27" vertex="1">
          <mxGeometry y="200" width="160" height="92" as="geometry" />
        </mxCell>
        <mxCell id="BkyBGvqs4By1QXijaLyd-31" value="Extends" style="endArrow=block;endSize=16;endFill=0;html=1;" parent="1" source="BkyBGvqs4By1QXijaLyd-27" edge="1">
          <mxGeometry width="160" relative="1" as="geometry">
            <mxPoint x="440" y="350" as="sourcePoint" />
            <mxPoint x="240" y="180" as="targetPoint" />
          </mxGeometry>
        </mxCell>
        <mxCell id="ens4P5NGNurrFPPocclL-3" value="Superadministrador" style="swimlane;fontStyle=1;align=center;verticalAlign=top;childLayout=stackLayout;horizontal=1;startSize=26;horizontalStack=0;resizeParent=1;resizeParentMax=0;resizeLast=0;collapsible=1;marginBottom=0;" parent="1" vertex="1">
          <mxGeometry x="90" y="400" width="160" height="260" as="geometry" />
        </mxCell>
        <mxCell id="ens4P5NGNurrFPPocclL-4" value="id:String&#xa;idEstudiante:int&#xa;codigoMateria:Int&#xa;codigoActividad:Int&#xa;nota:Float&#xa;" style="text;strokeColor=none;fillColor=none;align=left;verticalAlign=top;spacingLeft=4;spacingRight=4;overflow=hidden;rotatable=0;points=[[0,0.5],[1,0.5]];portConstraint=eastwest;" parent="ens4P5NGNurrFPPocclL-3" vertex="1">
          <mxGeometry y="26" width="160" height="74" as="geometry" />
        </mxCell>
        <mxCell id="ens4P5NGNurrFPPocclL-5" value="" style="line;strokeWidth=1;fillColor=none;align=left;verticalAlign=middle;spacingTop=-1;spacingLeft=3;spacingRight=3;rotatable=0;labelPosition=right;points=[];portConstraint=eastwest;" parent="ens4P5NGNurrFPPocclL-3" vertex="1">
          <mxGeometry y="100" width="160" height="8" as="geometry" />
        </mxCell>
        <mxCell id="ens4P5NGNurrFPPocclL-6" value="+ AsignarMateria():void&#xa; +EliminarMateria():void&#xa;+ AsignarActividad():void&#xa; +EliminarActividad():void&#xa;+ CrearEstudiante():void&#xa; +EliminarEstudiante():void&#xa;+ CrearDocente():void&#xa; +EliminarDocenre():void" style="text;strokeColor=none;fillColor=none;align=left;verticalAlign=top;spacingLeft=4;spacingRight=4;overflow=hidden;rotatable=0;points=[[0,0.5],[1,0.5]];portConstraint=eastwest;" parent="ens4P5NGNurrFPPocclL-3" vertex="1">
          <mxGeometry y="108" width="160" height="152" as="geometry" />
        </mxCell>
        <mxCell id="ens4P5NGNurrFPPocclL-8" value="Extends" style="endArrow=block;endSize=16;endFill=0;html=1;exitX=0.45;exitY=0;exitDx=0;exitDy=0;exitPerimeter=0;" parent="1" source="ens4P5NGNurrFPPocclL-3" target="BkyBGvqs4By1QXijaLyd-8" edge="1">
          <mxGeometry width="160" relative="1" as="geometry">
            <mxPoint x="480" y="440" as="sourcePoint" />
            <mxPoint x="640" y="440" as="targetPoint" />
          </mxGeometry>
        </mxCell>
        <mxCell id="ens4P5NGNurrFPPocclL-15" value="&lt;div&gt;Se obviaron Seeters &lt;br&gt;&lt;/div&gt;&lt;div&gt;and getters&lt;/div&gt;" style="html=1;" parent="1" vertex="1">
          <mxGeometry x="630" y="520" width="110" height="50" as="geometry" />
        </mxCell>
        <mxCell id="ens4P5NGNurrFPPocclL-17" value="1" style="endArrow=open;html=1;endSize=12;startArrow=diamondThin;startSize=14;startFill=1;edgeStyle=orthogonalEdgeStyle;align=left;verticalAlign=bottom;" parent="1" source="BkyBGvqs4By1QXijaLyd-24" target="BkyBGvqs4By1QXijaLyd-20" edge="1">
          <mxGeometry x="-1" y="3" relative="1" as="geometry">
            <mxPoint x="430" y="390" as="sourcePoint" />
            <mxPoint x="590" y="390" as="targetPoint" />
          </mxGeometry>
        </mxCell>
        <mxCell id="ens4P5NGNurrFPPocclL-21" value="Agregación" style="text;align=center;fontStyle=1;verticalAlign=middle;spacingLeft=3;spacingRight=3;strokeColor=none;rotatable=0;points=[[0,0.5],[1,0.5]];portConstraint=eastwest;" parent="1" vertex="1">
          <mxGeometry x="530" y="24" width="80" height="26" as="geometry" />
        </mxCell>
        <mxCell id="ens4P5NGNurrFPPocclL-22" value="Composición: Cada actividad solo se relaciona con una materia&#xa;" style="text;align=center;fontStyle=1;verticalAlign=middle;spacingLeft=3;spacingRight=3;strokeColor=none;rotatable=0;points=[[0,0.5],[1,0.5]];portConstraint=eastwest;fontSize=8;" parent="1" vertex="1">
          <mxGeometry x="820" y="173" width="240" height="20" as="geometry" />
        </mxCell>
        <mxCell id="ens4P5NGNurrFPPocclL-23" value="una materia tiene un único profesor&amp;nbsp; y un mismo profesor puede desempeñarse en varias materias" style="text;align=center;fontStyle=1;verticalAlign=middle;spacingLeft=3;spacingRight=3;strokeColor=none;rotatable=0;points=[[0,0.5],[1,0.5]];portConstraint=eastwest;fontSize=9;html=1;whiteSpace=wrap;" parent="1" vertex="1">
          <mxGeometry x="590" y="290" width="120" height="110" as="geometry" />
        </mxCell>
        <mxCell id="ens4P5NGNurrFPPocclL-24" value="una materia no existe si no hay alumnos" style="text;align=center;fontStyle=1;verticalAlign=middle;spacingLeft=3;spacingRight=3;strokeColor=none;rotatable=0;points=[[0,0.5],[1,0.5]];portConstraint=eastwest;fontSize=9;html=1;whiteSpace=wrap;" parent="1" vertex="1">
          <mxGeometry x="400" y="-40" width="120" height="110" as="geometry" />
        </mxCell>
        <mxCell id="ens4P5NGNurrFPPocclL-34" value="1" style="endArrow=open;html=1;endSize=12;startArrow=diamondThin;startSize=14;startFill=0;edgeStyle=orthogonalEdgeStyle;align=left;verticalAlign=bottom;fontSize=8;exitX=0;exitY=0.5;exitDx=0;exitDy=0;entryX=1.004;entryY=0.672;entryDx=0;entryDy=0;entryPerimeter=0;" parent="1" source="BkyBGvqs4By1QXijaLyd-20" target="BkyBGvqs4By1QXijaLyd-16" edge="1">
          <mxGeometry x="-1" y="3" relative="1" as="geometry">
            <mxPoint x="590" y="390" as="sourcePoint" />
            <mxPoint x="750" y="390" as="targetPoint" />
          </mxGeometry>
        </mxCell>
        <mxCell id="ens4P5NGNurrFPPocclL-39" value="" style="endArrow=none;html=1;rounded=0;fontSize=8;exitX=1;exitY=0.022;exitDx=0;exitDy=0;exitPerimeter=0;entryX=0.5;entryY=1;entryDx=0;entryDy=0;" parent="1" source="BkyBGvqs4By1QXijaLyd-30" target="BkyBGvqs4By1QXijaLyd-19" edge="1">
          <mxGeometry relative="1" as="geometry">
            <mxPoint x="590" y="320" as="sourcePoint" />
            <mxPoint x="750" y="320" as="targetPoint" />
          </mxGeometry>
        </mxCell>
        <mxCell id="ens4P5NGNurrFPPocclL-40" value="*" style="text;align=center;fontStyle=1;verticalAlign=middle;spacingLeft=3;spacingRight=3;strokeColor=none;rotatable=0;points=[[0,0.5],[1,0.5]];portConstraint=eastwest;fontSize=8;html=1;" parent="1" vertex="1">
          <mxGeometry x="670" y="170" width="80" height="26" as="geometry" />
        </mxCell>
        <mxCell id="ens4P5NGNurrFPPocclL-41" value="1" style="text;align=center;fontStyle=1;verticalAlign=middle;spacingLeft=3;spacingRight=3;strokeColor=none;rotatable=0;points=[[0,0.5],[1,0.5]];portConstraint=eastwest;fontSize=8;html=1;" parent="1" vertex="1">
          <mxGeometry x="490" y="430" width="80" height="26" as="geometry" />
        </mxCell>
        <mxCell id="98kpKsjITdi3HMGXfDGU-1" value="una Actividad no existe si no hay Docente" style="text;align=center;fontStyle=1;verticalAlign=middle;spacingLeft=3;spacingRight=3;strokeColor=none;rotatable=0;points=[[0,0.5],[1,0.5]];portConstraint=eastwest;fontSize=9;html=1;whiteSpace=wrap;" parent="1" vertex="1">
          <mxGeometry x="750" y="330" width="120" height="110" as="geometry" />
        </mxCell>
        <mxCell id="98kpKsjITdi3HMGXfDGU-2" value="1" style="endArrow=open;html=1;endSize=12;startArrow=diamondThin;startSize=14;startFill=0;edgeStyle=orthogonalEdgeStyle;align=left;verticalAlign=bottom;fontSize=8;exitX=-0.017;exitY=0.879;exitDx=0;exitDy=0;exitPerimeter=0;" parent="1" source="BkyBGvqs4By1QXijaLyd-24" target="BkyBGvqs4By1QXijaLyd-30" edge="1">
          <mxGeometry x="-1" y="3" relative="1" as="geometry">
            <mxPoint x="709.4300000000001" y="350" as="sourcePoint" />
            <mxPoint x="630.0699999999999" y="404.60799999999995" as="targetPoint" />
            <Array as="points">
              <mxPoint x="750" y="282" />
              <mxPoint x="750" y="484" />
            </Array>
          </mxGeometry>
        </mxCell>
      </root>
    </mxGraphModel>
  </diagram>
  <diagram id="Mag8_ZCe4ZSIK76siR_o" name="CDU V1">
    <mxGraphModel dx="1393" dy="796" grid="1" gridSize="10" guides="1" tooltips="1" connect="1" arrows="1" fold="1" page="1" pageScale="1" pageWidth="1654" pageHeight="2336" math="0" shadow="0">
      <root>
        <mxCell id="40UgG4BUSRHfEYHv4Uak-0" />
        <mxCell id="40UgG4BUSRHfEYHv4Uak-1" parent="40UgG4BUSRHfEYHv4Uak-0" />
        <mxCell id="40UgG4BUSRHfEYHv4Uak-2" value="Sistema PNG" style="swimlane;swimlaneFillColor=default;fillColor=#bac8d3;shadow=1;glass=0;strokeColor=#23445d;autosize=1;sketch=0;" parent="40UgG4BUSRHfEYHv4Uak-1" vertex="1">
          <mxGeometry x="255" y="88" width="454" height="786" as="geometry" />
        </mxCell>
        <mxCell id="40UgG4BUSRHfEYHv4Uak-3" value="Login" style="ellipse;whiteSpace=wrap;html=1;shadow=1;verticalAlign=middle;gradientColor=#ffffff;glass=0;sketch=0;fontSize=10;" parent="40UgG4BUSRHfEYHv4Uak-2" vertex="1">
          <mxGeometry x="49" y="60" width="120" height="60" as="geometry" />
        </mxCell>
        <mxCell id="40UgG4BUSRHfEYHv4Uak-4" value="&lt;u style=&quot;font-size: 10px;&quot;&gt;&lt;span lang=&quot;ES&quot; style=&quot;font-size: 10px; line-height: 107%; font-family: calibri, sans-serif;&quot;&gt;Visualizar&lt;/span&gt;&lt;/u&gt;&lt;span lang=&quot;ES&quot; style=&quot;font-size: 10px; line-height: 107%; font-family: calibri, sans-serif;&quot;&gt; su información personal&lt;/span&gt;" style="ellipse;whiteSpace=wrap;html=1;shadow=1;verticalAlign=middle;gradientColor=#ffffff;glass=0;sketch=0;fontSize=10;" parent="40UgG4BUSRHfEYHv4Uak-2" vertex="1">
          <mxGeometry x="55" y="273" width="120" height="60" as="geometry" />
        </mxCell>
        <mxCell id="40UgG4BUSRHfEYHv4Uak-5" value="&lt;u style=&quot;font-size: 10px;&quot;&gt;&lt;span lang=&quot;ES&quot; style=&quot;font-size: 10px; line-height: 107%; font-family: calibri, sans-serif;&quot;&gt;Visualizar&lt;/span&gt;&lt;/u&gt;&lt;span lang=&quot;ES&quot; style=&quot;font-size: 10px; line-height: 107%; font-family: calibri, sans-serif;&quot;&gt; las materias que tiene matriculadas&lt;/span&gt;" style="ellipse;whiteSpace=wrap;html=1;shadow=1;verticalAlign=middle;gradientColor=#ffffff;glass=0;sketch=0;fontSize=10;" parent="40UgG4BUSRHfEYHv4Uak-2" vertex="1">
          <mxGeometry x="55" y="346" width="120" height="60" as="geometry" />
        </mxCell>
        <mxCell id="40UgG4BUSRHfEYHv4Uak-6" value="&lt;font face=&quot;calibri, sans-serif&quot; style=&quot;font-size: 10px&quot;&gt;&lt;u&gt;Visualizar&lt;/u&gt; la nota obtenida en cada materia&lt;/font&gt;" style="ellipse;whiteSpace=wrap;html=1;shadow=1;verticalAlign=middle;gradientColor=#ffffff;glass=0;sketch=0;fontSize=10;" parent="40UgG4BUSRHfEYHv4Uak-2" vertex="1">
          <mxGeometry x="293" y="435" width="120" height="60" as="geometry" />
        </mxCell>
        <mxCell id="40UgG4BUSRHfEYHv4Uak-7" value="&lt;font face=&quot;calibri, sans-serif&quot; style=&quot;font-size: 10px&quot;&gt;&lt;u&gt;Visualizar&lt;/u&gt; el detalle de las actividades presentadas&lt;/font&gt;" style="ellipse;whiteSpace=wrap;html=1;shadow=1;verticalAlign=middle;gradientColor=#ffffff;glass=0;sketch=0;fontSize=10;" parent="40UgG4BUSRHfEYHv4Uak-2" vertex="1">
          <mxGeometry x="49" y="423" width="120" height="60" as="geometry" />
        </mxCell>
        <mxCell id="40UgG4BUSRHfEYHv4Uak-8" value="&lt;font style=&quot;font-size: 10px&quot;&gt;&lt;u&gt;&lt;span lang=&quot;ES&quot; style=&quot;line-height: 107% ; font-family: &amp;#34;calibri&amp;#34; , sans-serif&quot;&gt;Registrar&lt;br/&gt;&lt;/span&gt;&lt;/u&gt;&lt;span lang=&quot;ES&quot; style=&quot;line-height: 107% ; font-family: &amp;#34;calibri&amp;#34; , sans-serif&quot;&gt;actividades en cada una de&lt;br/&gt;las materias que tiene asignadas&lt;/span&gt;&lt;/font&gt;" style="ellipse;whiteSpace=wrap;html=1;shadow=1;verticalAlign=middle;gradientColor=#ffffff;glass=0;sketch=0;fontSize=10;" parent="40UgG4BUSRHfEYHv4Uak-2" vertex="1">
          <mxGeometry x="52" y="562" width="120" height="61" as="geometry" />
        </mxCell>
        <mxCell id="40UgG4BUSRHfEYHv4Uak-9" value="&lt;font style=&quot;font-size: 10px&quot;&gt;&lt;u&gt;&lt;span lang=&quot;ES&quot; style=&quot;line-height: 107% ; font-family: &amp;#34;calibri&amp;#34; , sans-serif&quot;&gt;Calificar&lt;/span&gt;&lt;/u&gt;&lt;span lang=&quot;ES&quot; style=&quot;line-height: 107% ; font-family: &amp;#34;calibri&amp;#34; , sans-serif&quot;&gt; dichas actividades y realimentar&lt;/span&gt;&lt;/font&gt;&lt;span lang=&quot;ES&quot; style=&quot;font-size: 11.0pt ; line-height: 107% ; font-family: &amp;#34;calibri&amp;#34; , sans-serif&quot;&gt;&amp;nbsp;&lt;/span&gt;" style="ellipse;whiteSpace=wrap;html=1;shadow=1;verticalAlign=middle;gradientColor=#ffffff;glass=0;sketch=0;fontSize=10;" parent="40UgG4BUSRHfEYHv4Uak-2" vertex="1">
          <mxGeometry x="46" y="652" width="120" height="60" as="geometry" />
        </mxCell>
        <mxCell id="40UgG4BUSRHfEYHv4Uak-10" value="&lt;font style=&quot;font-size: 10px&quot;&gt;Generar nota final de la materia&lt;/font&gt;" style="ellipse;whiteSpace=wrap;html=1;shadow=1;verticalAlign=middle;gradientColor=#ffffff;glass=0;sketch=0;" parent="40UgG4BUSRHfEYHv4Uak-2" vertex="1">
          <mxGeometry x="284" y="652" width="120" height="60" as="geometry" />
        </mxCell>
        <mxCell id="40UgG4BUSRHfEYHv4Uak-11" value="&amp;lt;&amp;lt;Include&amp;gt;&amp;gt;" style="edgeStyle=orthogonalEdgeStyle;rounded=1;sketch=0;orthogonalLoop=1;jettySize=auto;html=1;dashed=1;exitX=0;exitY=0.5;exitDx=0;exitDy=0;entryX=1;entryY=0.5;entryDx=0;entryDy=0;" parent="40UgG4BUSRHfEYHv4Uak-2" source="40UgG4BUSRHfEYHv4Uak-10" target="40UgG4BUSRHfEYHv4Uak-9" edge="1">
          <mxGeometry relative="1" as="geometry">
            <mxPoint x="119" y="493" as="sourcePoint" />
            <mxPoint x="162" y="674" as="targetPoint" />
          </mxGeometry>
        </mxCell>
        <mxCell id="40UgG4BUSRHfEYHv4Uak-12" value="&amp;lt;&amp;lt;Extend&amp;gt;&amp;gt;" style="edgeStyle=orthogonalEdgeStyle;rounded=1;sketch=0;orthogonalLoop=1;jettySize=auto;html=1;dashed=1;entryX=0.5;entryY=0;entryDx=0;entryDy=0;" parent="40UgG4BUSRHfEYHv4Uak-2" source="40UgG4BUSRHfEYHv4Uak-6" target="40UgG4BUSRHfEYHv4Uak-10" edge="1">
          <mxGeometry relative="1" as="geometry">
            <mxPoint x="294" y="692" as="sourcePoint" />
            <mxPoint x="359" y="652" as="targetPoint" />
          </mxGeometry>
        </mxCell>
        <mxCell id="40UgG4BUSRHfEYHv4Uak-13" value="&lt;font face=&quot;calibri, sans-serif&quot;&gt;Validar datos de acceso&lt;/font&gt;" style="ellipse;whiteSpace=wrap;html=1;shadow=1;verticalAlign=middle;gradientColor=#ffffff;glass=0;sketch=0;fontSize=10;" parent="40UgG4BUSRHfEYHv4Uak-2" vertex="1">
          <mxGeometry x="272" y="59.5" width="120" height="61" as="geometry" />
        </mxCell>
        <mxCell id="40UgG4BUSRHfEYHv4Uak-14" value="&amp;lt;&amp;lt;Include&amp;gt;&amp;gt;" style="edgeStyle=orthogonalEdgeStyle;rounded=1;sketch=0;orthogonalLoop=1;jettySize=auto;html=1;dashed=1;exitX=1;exitY=0.5;exitDx=0;exitDy=0;entryX=0;entryY=0.5;entryDx=0;entryDy=0;" parent="40UgG4BUSRHfEYHv4Uak-2" source="40UgG4BUSRHfEYHv4Uak-3" target="40UgG4BUSRHfEYHv4Uak-13" edge="1">
          <mxGeometry x="0.0097" y="13" relative="1" as="geometry">
            <mxPoint x="318" y="584" as="sourcePoint" />
            <mxPoint x="284" y="159" as="targetPoint" />
            <Array as="points" />
            <mxPoint as="offset" />
          </mxGeometry>
        </mxCell>
        <mxCell id="40UgG4BUSRHfEYHv4Uak-15" value="El proceso de Login requiere la verificación para completarse" style="text;html=1;strokeColor=none;fillColor=none;align=center;verticalAlign=middle;whiteSpace=wrap;rounded=0;shadow=1;glass=0;sketch=0;fontSize=10;" parent="40UgG4BUSRHfEYHv4Uak-2" vertex="1">
          <mxGeometry x="159" y="123" width="115" height="20" as="geometry" />
        </mxCell>
        <mxCell id="40UgG4BUSRHfEYHv4Uak-16" value="" style="edgeStyle=orthogonalEdgeStyle;rounded=1;sketch=0;orthogonalLoop=1;jettySize=auto;html=1;endArrow=blockThin;endFill=1;" parent="40UgG4BUSRHfEYHv4Uak-1" source="40UgG4BUSRHfEYHv4Uak-17" target="40UgG4BUSRHfEYHv4Uak-3" edge="1">
          <mxGeometry relative="1" as="geometry" />
        </mxCell>
        <mxCell id="40UgG4BUSRHfEYHv4Uak-17" value="Super-administrador" style="shape=umlActor;verticalLabelPosition=bottom;verticalAlign=top;html=1;shadow=1;glass=0;sketch=0;gradientColor=#ffffff;strokeColor=default;" parent="40UgG4BUSRHfEYHv4Uak-1" vertex="1">
          <mxGeometry x="114" y="148" width="30" height="60" as="geometry" />
        </mxCell>
        <mxCell id="40UgG4BUSRHfEYHv4Uak-18" value="" style="edgeStyle=orthogonalEdgeStyle;rounded=1;sketch=0;orthogonalLoop=1;jettySize=auto;html=1;fontSize=10;endArrow=blockThin;endFill=1;entryX=0;entryY=0.5;entryDx=0;entryDy=0;entryPerimeter=0;" parent="40UgG4BUSRHfEYHv4Uak-1" target="40UgG4BUSRHfEYHv4Uak-5" edge="1">
          <mxGeometry relative="1" as="geometry">
            <mxPoint x="158" y="506" as="sourcePoint" />
            <Array as="points">
              <mxPoint x="281" y="506" />
              <mxPoint x="281" y="464" />
            </Array>
          </mxGeometry>
        </mxCell>
        <mxCell id="40UgG4BUSRHfEYHv4Uak-19" value="Estudiante" style="shape=umlActor;verticalLabelPosition=bottom;verticalAlign=top;html=1;shadow=1;glass=0;sketch=0;gradientColor=#ffffff;" parent="40UgG4BUSRHfEYHv4Uak-1" vertex="1">
          <mxGeometry x="122" y="477" width="30" height="60" as="geometry" />
        </mxCell>
        <mxCell id="40UgG4BUSRHfEYHv4Uak-20" value="Docente" style="shape=umlActor;verticalLabelPosition=bottom;verticalAlign=top;html=1;shadow=1;glass=0;sketch=0;gradientColor=#ffffff;" parent="40UgG4BUSRHfEYHv4Uak-1" vertex="1">
          <mxGeometry x="122" y="656" width="30" height="60" as="geometry" />
        </mxCell>
        <mxCell id="40UgG4BUSRHfEYHv4Uak-21" value="" style="edgeStyle=orthogonalEdgeStyle;rounded=1;sketch=0;orthogonalLoop=1;jettySize=auto;html=1;fontSize=10;endArrow=blockThin;endFill=1;" parent="40UgG4BUSRHfEYHv4Uak-1" source="40UgG4BUSRHfEYHv4Uak-22" target="40UgG4BUSRHfEYHv4Uak-10" edge="1">
          <mxGeometry relative="1" as="geometry" />
        </mxCell>
        <mxCell id="40UgG4BUSRHfEYHv4Uak-22" value="EAN &amp;lt;&amp;lt;Sistema&amp;gt;&amp;gt;" style="shape=umlActor;verticalLabelPosition=bottom;verticalAlign=top;html=1;shadow=1;glass=0;sketch=0;gradientColor=#ffffff;" parent="40UgG4BUSRHfEYHv4Uak-1" vertex="1">
          <mxGeometry x="787" y="740" width="30" height="60" as="geometry" />
        </mxCell>
        <mxCell id="40UgG4BUSRHfEYHv4Uak-23" value="" style="edgeStyle=orthogonalEdgeStyle;rounded=1;sketch=0;orthogonalLoop=1;jettySize=auto;html=1;fontSize=10;endArrow=blockThin;endFill=1;entryX=0;entryY=0.5;entryDx=0;entryDy=0;" parent="40UgG4BUSRHfEYHv4Uak-1" target="40UgG4BUSRHfEYHv4Uak-4" edge="1">
          <mxGeometry relative="1" as="geometry">
            <mxPoint x="157" y="489" as="sourcePoint" />
            <mxPoint x="323" y="491" as="targetPoint" />
            <Array as="points">
              <mxPoint x="250" y="489" />
              <mxPoint x="250" y="391" />
            </Array>
          </mxGeometry>
        </mxCell>
        <mxCell id="40UgG4BUSRHfEYHv4Uak-24" value="" style="edgeStyle=orthogonalEdgeStyle;rounded=1;sketch=0;orthogonalLoop=1;jettySize=auto;html=1;fontSize=10;endArrow=blockThin;endFill=1;entryX=0;entryY=0.5;entryDx=0;entryDy=0;" parent="40UgG4BUSRHfEYHv4Uak-1" target="40UgG4BUSRHfEYHv4Uak-8" edge="1">
          <mxGeometry relative="1" as="geometry">
            <mxPoint x="174" y="681" as="sourcePoint" />
            <mxPoint x="308" y="654" as="targetPoint" />
            <Array as="points">
              <mxPoint x="145" y="681" />
              <mxPoint x="232" y="681" />
            </Array>
          </mxGeometry>
        </mxCell>
        <mxCell id="40UgG4BUSRHfEYHv4Uak-25" value="" style="edgeStyle=orthogonalEdgeStyle;rounded=1;sketch=0;orthogonalLoop=1;jettySize=auto;html=1;fontSize=10;endArrow=blockThin;endFill=1;entryX=0;entryY=0.5;entryDx=0;entryDy=0;" parent="40UgG4BUSRHfEYHv4Uak-1" target="40UgG4BUSRHfEYHv4Uak-7" edge="1">
          <mxGeometry relative="1" as="geometry">
            <mxPoint x="173" y="541" as="sourcePoint" />
            <mxPoint x="320" y="474" as="targetPoint" />
            <Array as="points">
              <mxPoint x="220" y="541" />
              <mxPoint x="220" y="541" />
            </Array>
          </mxGeometry>
        </mxCell>
        <mxCell id="40UgG4BUSRHfEYHv4Uak-26" value="" style="edgeStyle=orthogonalEdgeStyle;rounded=1;sketch=0;orthogonalLoop=1;jettySize=auto;html=1;fontSize=10;endArrow=blockThin;endFill=1;" parent="40UgG4BUSRHfEYHv4Uak-1" edge="1">
          <mxGeometry relative="1" as="geometry">
            <mxPoint x="155" y="708" as="sourcePoint" />
            <mxPoint x="298" y="770" as="targetPoint" />
            <Array as="points">
              <mxPoint x="242" y="708" />
              <mxPoint x="242" y="770" />
              <mxPoint x="298" y="770" />
            </Array>
          </mxGeometry>
        </mxCell>
        <mxCell id="40UgG4BUSRHfEYHv4Uak-27" value="" style="edgeStyle=orthogonalEdgeStyle;rounded=1;sketch=0;orthogonalLoop=1;jettySize=auto;html=1;fontSize=10;endArrow=blockThin;endFill=1;entryX=0.5;entryY=0;entryDx=0;entryDy=0;" parent="40UgG4BUSRHfEYHv4Uak-1" target="40UgG4BUSRHfEYHv4Uak-6" edge="1">
          <mxGeometry relative="1" as="geometry">
            <mxPoint x="164" y="523" as="sourcePoint" />
            <mxPoint x="314" y="551" as="targetPoint" />
            <Array as="points">
              <mxPoint x="289" y="523" />
              <mxPoint x="289" y="505" />
              <mxPoint x="608" y="505" />
            </Array>
          </mxGeometry>
        </mxCell>
        <mxCell id="40UgG4BUSRHfEYHv4Uak-28" value="Estudiante" style="shape=umlActor;verticalLabelPosition=bottom;verticalAlign=top;html=1;shadow=1;glass=0;sketch=0;gradientColor=#ffffff;" parent="40UgG4BUSRHfEYHv4Uak-1" vertex="1">
          <mxGeometry x="801" y="417" width="30" height="60" as="geometry" />
        </mxCell>
        <mxCell id="40UgG4BUSRHfEYHv4Uak-29" value="Docente" style="shape=umlActor;verticalLabelPosition=bottom;verticalAlign=top;html=1;shadow=1;glass=0;sketch=0;gradientColor=#ffffff;" parent="40UgG4BUSRHfEYHv4Uak-1" vertex="1">
          <mxGeometry x="902" y="420" width="30" height="60" as="geometry" />
        </mxCell>
        <mxCell id="40UgG4BUSRHfEYHv4Uak-30" value="Super admin" style="shape=umlActor;verticalLabelPosition=bottom;verticalAlign=top;html=1;shadow=1;glass=0;sketch=0;gradientColor=#ffffff;strokeColor=default;" parent="40UgG4BUSRHfEYHv4Uak-1" vertex="1">
          <mxGeometry x="846" y="274" width="30" height="60" as="geometry" />
        </mxCell>
        <mxCell id="40UgG4BUSRHfEYHv4Uak-31" value="" style="endArrow=block;html=1;fontSize=10;exitX=0.5;exitY=0;exitDx=0;exitDy=0;exitPerimeter=0;endFill=0;" parent="40UgG4BUSRHfEYHv4Uak-1" source="40UgG4BUSRHfEYHv4Uak-28" edge="1">
          <mxGeometry width="50" height="50" relative="1" as="geometry">
            <mxPoint x="544" y="432" as="sourcePoint" />
            <mxPoint x="843" y="363" as="targetPoint" />
          </mxGeometry>
        </mxCell>
        <mxCell id="40UgG4BUSRHfEYHv4Uak-32" value="" style="endArrow=block;html=1;fontSize=10;exitX=0.5;exitY=0;exitDx=0;exitDy=0;exitPerimeter=0;endFill=0;" parent="40UgG4BUSRHfEYHv4Uak-1" edge="1">
          <mxGeometry width="50" height="50" relative="1" as="geometry">
            <mxPoint x="914" y="421" as="sourcePoint" />
            <mxPoint x="892" y="366" as="targetPoint" />
          </mxGeometry>
        </mxCell>
        <mxCell id="40UgG4BUSRHfEYHv4Uak-33" value="" style="edgeStyle=orthogonalEdgeStyle;rounded=1;sketch=0;orthogonalLoop=1;jettySize=auto;html=1;fontSize=10;endArrow=blockThin;endFill=1;entryX=0.5;entryY=1;entryDx=0;entryDy=0;exitX=0.5;exitY=0;exitDx=0;exitDy=0;exitPerimeter=0;" parent="40UgG4BUSRHfEYHv4Uak-1" source="40UgG4BUSRHfEYHv4Uak-19" target="40UgG4BUSRHfEYHv4Uak-3" edge="1">
          <mxGeometry relative="1" as="geometry">
            <mxPoint x="161" y="386" as="sourcePoint" />
            <mxPoint x="314" y="288" as="targetPoint" />
            <Array as="points">
              <mxPoint x="202" y="477" />
              <mxPoint x="202" y="336" />
              <mxPoint x="364" y="336" />
            </Array>
          </mxGeometry>
        </mxCell>
        <mxCell id="40UgG4BUSRHfEYHv4Uak-34" value="" style="edgeStyle=orthogonalEdgeStyle;rounded=1;sketch=0;orthogonalLoop=1;jettySize=auto;html=1;fontSize=10;endArrow=blockThin;endFill=1;entryX=0;entryY=1;entryDx=0;entryDy=0;" parent="40UgG4BUSRHfEYHv4Uak-1" target="40UgG4BUSRHfEYHv4Uak-3" edge="1">
          <mxGeometry relative="1" as="geometry">
            <mxPoint x="138" y="655" as="sourcePoint" />
            <mxPoint x="374" y="218" as="targetPoint" />
            <Array as="points">
              <mxPoint x="138" y="634" />
              <mxPoint x="83" y="634" />
              <mxPoint x="83" y="346" />
              <mxPoint x="176" y="346" />
              <mxPoint x="176" y="266" />
              <mxPoint x="321" y="266" />
            </Array>
          </mxGeometry>
        </mxCell>
        <mxCell id="40UgG4BUSRHfEYHv4Uak-35" value="" style="edgeStyle=orthogonalEdgeStyle;rounded=1;sketch=0;orthogonalLoop=1;jettySize=auto;html=1;fontSize=10;endArrow=blockThin;endFill=1;entryX=1;entryY=0.5;entryDx=0;entryDy=0;exitX=0;exitY=0.3333333333333333;exitDx=0;exitDy=0;exitPerimeter=0;" parent="40UgG4BUSRHfEYHv4Uak-1" source="40UgG4BUSRHfEYHv4Uak-22" target="40UgG4BUSRHfEYHv4Uak-13" edge="1">
          <mxGeometry relative="1" as="geometry">
            <mxPoint x="797" y="780" as="sourcePoint" />
            <mxPoint x="669" y="780" as="targetPoint" />
            <Array as="points">
              <mxPoint x="787" y="746" />
              <mxPoint x="742" y="746" />
              <mxPoint x="742" y="178" />
            </Array>
          </mxGeometry>
        </mxCell>
      </root>
    </mxGraphModel>
  </diagram>
  <diagram id="gcNtevxPkJrz0J79E5ZL" name="CDU V2">
    <mxGraphModel dx="1422" dy="762" grid="1" gridSize="10" guides="1" tooltips="1" connect="1" arrows="1" fold="1" page="1" pageScale="1" pageWidth="1654" pageHeight="2336" math="0" shadow="0">
      <root>
        <mxCell id="brHJOATeAmiPBkFJqzlV-0" />
        <mxCell id="brHJOATeAmiPBkFJqzlV-1" parent="brHJOATeAmiPBkFJqzlV-0" />
        <mxCell id="brHJOATeAmiPBkFJqzlV-2" value="Sistema PNG" style="swimlane;swimlaneFillColor=default;fillColor=#bac8d3;shadow=1;glass=0;strokeColor=#23445d;autosize=1;sketch=0;" parent="brHJOATeAmiPBkFJqzlV-1" vertex="1">
          <mxGeometry x="257" y="60" width="515" height="786" as="geometry" />
        </mxCell>
        <mxCell id="brHJOATeAmiPBkFJqzlV-3" value="Login" style="ellipse;whiteSpace=wrap;html=1;shadow=1;verticalAlign=middle;gradientColor=#ffffff;glass=0;sketch=0;fontSize=10;" parent="brHJOATeAmiPBkFJqzlV-2" vertex="1">
          <mxGeometry x="49" y="60" width="120" height="60" as="geometry" />
        </mxCell>
        <mxCell id="brHJOATeAmiPBkFJqzlV-4" value="&lt;u style=&quot;font-size: 10px;&quot;&gt;&lt;span lang=&quot;ES&quot; style=&quot;font-size: 10px; line-height: 107%; font-family: calibri, sans-serif;&quot;&gt;Visualizar&lt;/span&gt;&lt;/u&gt;&lt;span lang=&quot;ES&quot; style=&quot;font-size: 10px; line-height: 107%; font-family: calibri, sans-serif;&quot;&gt; su información personal&lt;/span&gt;" style="ellipse;whiteSpace=wrap;html=1;shadow=1;verticalAlign=middle;gradientColor=#ffffff;glass=0;sketch=0;fontSize=10;" parent="brHJOATeAmiPBkFJqzlV-2" vertex="1">
          <mxGeometry x="82.5" y="307" width="120" height="60" as="geometry" />
        </mxCell>
        <mxCell id="brHJOATeAmiPBkFJqzlV-5" value="&lt;u style=&quot;font-size: 10px&quot;&gt;&lt;span lang=&quot;ES&quot; style=&quot;font-size: 10px ; line-height: 107% ; font-family: &amp;#34;calibri&amp;#34; , sans-serif&quot;&gt;Gestionar&lt;/span&gt;&lt;/u&gt;&lt;span lang=&quot;ES&quot; style=&quot;font-size: 10px ; line-height: 107% ; font-family: &amp;#34;calibri&amp;#34; , sans-serif&quot;&gt; las materias&lt;/span&gt;" style="ellipse;whiteSpace=wrap;html=1;shadow=1;verticalAlign=middle;gradientColor=#ffffff;glass=0;sketch=0;fontSize=10;" parent="brHJOATeAmiPBkFJqzlV-2" vertex="1">
          <mxGeometry x="82.5" y="387" width="120" height="60" as="geometry" />
        </mxCell>
        <mxCell id="brHJOATeAmiPBkFJqzlV-6" style="edgeStyle=orthogonalEdgeStyle;rounded=1;sketch=0;orthogonalLoop=1;jettySize=auto;html=1;exitX=0.5;exitY=0;exitDx=0;exitDy=0;entryX=0.779;entryY=0.933;entryDx=0;entryDy=0;entryPerimeter=0;fontSize=10;endArrow=block;endFill=0;" parent="brHJOATeAmiPBkFJqzlV-2" source="brHJOATeAmiPBkFJqzlV-7" target="brHJOATeAmiPBkFJqzlV-5" edge="1">
          <mxGeometry relative="1" as="geometry" />
        </mxCell>
        <mxCell id="brHJOATeAmiPBkFJqzlV-7" value="&lt;u style=&quot;font-family: &amp;#34;calibri&amp;#34; , sans-serif&quot;&gt;Visualizar&lt;/u&gt;&lt;span style=&quot;font-family: &amp;#34;calibri&amp;#34; , sans-serif&quot;&gt;&amp;nbsp;el detalle de las actividades presentadas&lt;/span&gt;" style="ellipse;whiteSpace=wrap;html=1;shadow=1;verticalAlign=middle;gradientColor=#ffffff;glass=0;sketch=0;fontSize=10;" parent="brHJOATeAmiPBkFJqzlV-2" vertex="1">
          <mxGeometry x="169" y="517" width="120" height="60" as="geometry" />
        </mxCell>
        <mxCell id="brHJOATeAmiPBkFJqzlV-8" style="edgeStyle=orthogonalEdgeStyle;rounded=1;sketch=0;orthogonalLoop=1;jettySize=auto;html=1;exitX=0.5;exitY=0;exitDx=0;exitDy=0;fontSize=10;endArrow=block;endFill=0;" parent="brHJOATeAmiPBkFJqzlV-2" source="brHJOATeAmiPBkFJqzlV-9" target="brHJOATeAmiPBkFJqzlV-5" edge="1">
          <mxGeometry relative="1" as="geometry">
            <Array as="points">
              <mxPoint x="79.5" y="458" />
              <mxPoint x="118.5" y="458" />
            </Array>
          </mxGeometry>
        </mxCell>
        <mxCell id="brHJOATeAmiPBkFJqzlV-9" value="&lt;font style=&quot;font-size: 10px&quot;&gt;&lt;u&gt;&lt;span lang=&quot;ES&quot; style=&quot;line-height: 107% ; font-family: &amp;#34;calibri&amp;#34; , sans-serif&quot;&gt;Registrar&lt;br/&gt;&lt;/span&gt;&lt;/u&gt;&lt;span lang=&quot;ES&quot; style=&quot;line-height: 107% ; font-family: &amp;#34;calibri&amp;#34; , sans-serif&quot;&gt;actividades en cada una de&lt;br/&gt;las materias que tiene asignadas&lt;/span&gt;&lt;/font&gt;" style="ellipse;whiteSpace=wrap;html=1;shadow=1;verticalAlign=middle;gradientColor=#ffffff;glass=0;sketch=0;fontSize=10;" parent="brHJOATeAmiPBkFJqzlV-2" vertex="1">
          <mxGeometry x="18" y="514" width="120" height="61" as="geometry" />
        </mxCell>
        <mxCell id="brHJOATeAmiPBkFJqzlV-10" style="edgeStyle=orthogonalEdgeStyle;rounded=1;sketch=0;orthogonalLoop=1;jettySize=auto;html=1;exitX=0;exitY=0.5;exitDx=0;exitDy=0;entryX=0.994;entryY=0.544;entryDx=0;entryDy=0;entryPerimeter=0;fontSize=10;endArrow=block;endFill=0;" parent="brHJOATeAmiPBkFJqzlV-2" source="brHJOATeAmiPBkFJqzlV-11" target="brHJOATeAmiPBkFJqzlV-5" edge="1">
          <mxGeometry relative="1" as="geometry" />
        </mxCell>
        <mxCell id="brHJOATeAmiPBkFJqzlV-11" value="&lt;font style=&quot;font-size: 10px&quot;&gt;&lt;u&gt;&lt;span lang=&quot;ES&quot; style=&quot;line-height: 107% ; font-family: &amp;#34;calibri&amp;#34; , sans-serif&quot;&gt;Calificar&lt;/span&gt;&lt;/u&gt;&lt;span lang=&quot;ES&quot; style=&quot;line-height: 107% ; font-family: &amp;#34;calibri&amp;#34; , sans-serif&quot;&gt; dichas actividades y realimentar&lt;/span&gt;&lt;/font&gt;&lt;span lang=&quot;ES&quot; style=&quot;font-size: 11.0pt ; line-height: 107% ; font-family: &amp;#34;calibri&amp;#34; , sans-serif&quot;&gt;&amp;nbsp;&lt;/span&gt;" style="ellipse;whiteSpace=wrap;html=1;shadow=1;verticalAlign=middle;gradientColor=#ffffff;glass=0;sketch=0;fontSize=10;" parent="brHJOATeAmiPBkFJqzlV-2" vertex="1">
          <mxGeometry x="296.5" y="389" width="120" height="60" as="geometry" />
        </mxCell>
        <mxCell id="brHJOATeAmiPBkFJqzlV-12" value="&lt;font style=&quot;font-size: 10px&quot;&gt;Generar nota final de la materia&lt;/font&gt;" style="ellipse;whiteSpace=wrap;html=1;shadow=1;verticalAlign=middle;gradientColor=#ffffff;glass=0;sketch=0;" parent="brHJOATeAmiPBkFJqzlV-2" vertex="1">
          <mxGeometry x="296.5" y="279" width="120" height="60" as="geometry" />
        </mxCell>
        <mxCell id="brHJOATeAmiPBkFJqzlV-13" value="&amp;lt;&amp;lt;Include&amp;gt;&amp;gt;" style="edgeStyle=orthogonalEdgeStyle;rounded=1;sketch=0;orthogonalLoop=1;jettySize=auto;html=1;dashed=1;exitX=0.5;exitY=1;exitDx=0;exitDy=0;entryX=0.5;entryY=0;entryDx=0;entryDy=0;" parent="brHJOATeAmiPBkFJqzlV-2" source="brHJOATeAmiPBkFJqzlV-12" target="brHJOATeAmiPBkFJqzlV-11" edge="1">
          <mxGeometry relative="1" as="geometry">
            <mxPoint x="122.5" y="582" as="sourcePoint" />
            <mxPoint x="303.5" y="458" as="targetPoint" />
          </mxGeometry>
        </mxCell>
        <mxCell id="brHJOATeAmiPBkFJqzlV-14" value="&lt;font face=&quot;calibri, sans-serif&quot;&gt;Validar datos de acceso&lt;/font&gt;" style="ellipse;whiteSpace=wrap;html=1;shadow=1;verticalAlign=middle;gradientColor=#ffffff;glass=0;sketch=0;fontSize=10;" parent="brHJOATeAmiPBkFJqzlV-2" vertex="1">
          <mxGeometry x="318" y="60" width="120" height="61" as="geometry" />
        </mxCell>
        <mxCell id="brHJOATeAmiPBkFJqzlV-15" value="&amp;lt;&amp;lt;Include&amp;gt;&amp;gt;" style="edgeStyle=orthogonalEdgeStyle;rounded=1;sketch=0;orthogonalLoop=1;jettySize=auto;html=1;dashed=1;exitX=1;exitY=0.5;exitDx=0;exitDy=0;entryX=0;entryY=0.5;entryDx=0;entryDy=0;" parent="brHJOATeAmiPBkFJqzlV-2" source="brHJOATeAmiPBkFJqzlV-3" target="brHJOATeAmiPBkFJqzlV-14" edge="1">
          <mxGeometry x="0.003" y="-14" relative="1" as="geometry">
            <mxPoint x="318" y="584" as="sourcePoint" />
            <mxPoint x="284" y="159" as="targetPoint" />
            <Array as="points" />
            <mxPoint as="offset" />
          </mxGeometry>
        </mxCell>
        <mxCell id="brHJOATeAmiPBkFJqzlV-16" value="El proceso de Login requiere la verificación para completarse" style="text;html=1;strokeColor=none;fillColor=none;align=center;verticalAlign=middle;whiteSpace=wrap;rounded=0;shadow=1;glass=0;sketch=0;fontSize=10;" parent="brHJOATeAmiPBkFJqzlV-2" vertex="1">
          <mxGeometry x="169" y="32" width="115" height="20" as="geometry" />
        </mxCell>
        <mxCell id="brHJOATeAmiPBkFJqzlV-17" style="edgeStyle=orthogonalEdgeStyle;rounded=1;sketch=0;orthogonalLoop=1;jettySize=auto;html=1;exitX=0;exitY=0.5;exitDx=0;exitDy=0;entryX=0.992;entryY=0.706;entryDx=0;entryDy=0;entryPerimeter=0;fontSize=10;endArrow=block;endFill=0;" parent="brHJOATeAmiPBkFJqzlV-2" source="brHJOATeAmiPBkFJqzlV-18" target="brHJOATeAmiPBkFJqzlV-5" edge="1">
          <mxGeometry relative="1" as="geometry" />
        </mxCell>
        <mxCell id="brHJOATeAmiPBkFJqzlV-18" value="&lt;font face=&quot;calibri, sans-serif&quot; style=&quot;font-size: 10px&quot;&gt;&lt;u&gt;Visualizar&lt;/u&gt; la nota obtenida en cada materia&lt;/font&gt;" style="ellipse;whiteSpace=wrap;html=1;shadow=1;verticalAlign=middle;gradientColor=#ffffff;glass=0;sketch=0;fontSize=10;" parent="brHJOATeAmiPBkFJqzlV-2" vertex="1">
          <mxGeometry x="296.5" y="475" width="120" height="60" as="geometry" />
        </mxCell>
        <mxCell id="brHJOATeAmiPBkFJqzlV-19" value="&amp;lt;&amp;lt;Include&amp;gt;&amp;gt;" style="edgeStyle=orthogonalEdgeStyle;rounded=1;sketch=0;orthogonalLoop=1;jettySize=auto;html=1;dashed=1;exitX=1;exitY=0.5;exitDx=0;exitDy=0;entryX=1;entryY=1;entryDx=0;entryDy=0;" parent="brHJOATeAmiPBkFJqzlV-2" source="brHJOATeAmiPBkFJqzlV-18" target="brHJOATeAmiPBkFJqzlV-12" edge="1">
          <mxGeometry x="0.0097" y="13" relative="1" as="geometry">
            <mxPoint x="390.5" y="587" as="sourcePoint" />
            <mxPoint x="493.49999999999727" y="587" as="targetPoint" />
            <Array as="points">
              <mxPoint x="436.5" y="505" />
              <mxPoint x="436.5" y="407" />
              <mxPoint x="447.5" y="407" />
              <mxPoint x="447.5" y="330" />
            </Array>
            <mxPoint as="offset" />
          </mxGeometry>
        </mxCell>
        <mxCell id="brHJOATeAmiPBkFJqzlV-20" value="&lt;font face=&quot;calibri, sans-serif&quot;&gt;Registra usuarios&lt;/font&gt;" style="ellipse;whiteSpace=wrap;html=1;shadow=1;verticalAlign=middle;gradientColor=#ffffff;glass=0;sketch=0;fontSize=10;" parent="brHJOATeAmiPBkFJqzlV-2" vertex="1">
          <mxGeometry x="49" y="140" width="120" height="60" as="geometry" />
        </mxCell>
        <mxCell id="brHJOATeAmiPBkFJqzlV-21" value="&lt;font face=&quot;calibri, sans-serif&quot;&gt;Registra asignaturas&lt;/font&gt;" style="ellipse;whiteSpace=wrap;html=1;shadow=1;verticalAlign=middle;gradientColor=#ffffff;glass=0;sketch=0;fontSize=10;" parent="brHJOATeAmiPBkFJqzlV-2" vertex="1">
          <mxGeometry x="49" y="214" width="120" height="60" as="geometry" />
        </mxCell>
        <mxCell id="brHJOATeAmiPBkFJqzlV-22" style="edgeStyle=orthogonalEdgeStyle;rounded=1;sketch=0;orthogonalLoop=1;jettySize=auto;html=1;exitX=1;exitY=0.3333333333333333;exitDx=0;exitDy=0;exitPerimeter=0;fontSize=10;endArrow=block;endFill=0;" parent="brHJOATeAmiPBkFJqzlV-1" source="brHJOATeAmiPBkFJqzlV-25" target="brHJOATeAmiPBkFJqzlV-20" edge="1">
          <mxGeometry relative="1" as="geometry" />
        </mxCell>
        <mxCell id="brHJOATeAmiPBkFJqzlV-23" style="edgeStyle=orthogonalEdgeStyle;rounded=1;sketch=0;orthogonalLoop=1;jettySize=auto;html=1;exitX=0.75;exitY=0.1;exitDx=0;exitDy=0;exitPerimeter=0;fontSize=10;endArrow=block;endFill=0;" parent="brHJOATeAmiPBkFJqzlV-1" source="brHJOATeAmiPBkFJqzlV-25" target="brHJOATeAmiPBkFJqzlV-3" edge="1">
          <mxGeometry relative="1" as="geometry">
            <Array as="points">
              <mxPoint x="225" y="154" />
              <mxPoint x="225" y="150" />
            </Array>
          </mxGeometry>
        </mxCell>
        <mxCell id="brHJOATeAmiPBkFJqzlV-24" style="edgeStyle=orthogonalEdgeStyle;rounded=1;sketch=0;orthogonalLoop=1;jettySize=auto;html=1;exitX=0.5;exitY=0.5;exitDx=0;exitDy=0;exitPerimeter=0;entryX=0.006;entryY=0.439;entryDx=0;entryDy=0;entryPerimeter=0;fontSize=10;endArrow=block;endFill=0;" parent="brHJOATeAmiPBkFJqzlV-1" source="brHJOATeAmiPBkFJqzlV-25" target="brHJOATeAmiPBkFJqzlV-21" edge="1">
          <mxGeometry relative="1" as="geometry">
            <Array as="points">
              <mxPoint x="203" y="178" />
              <mxPoint x="203" y="300" />
            </Array>
          </mxGeometry>
        </mxCell>
        <mxCell id="brHJOATeAmiPBkFJqzlV-25" value="Super-administrador" style="shape=umlActor;verticalLabelPosition=bottom;verticalAlign=top;html=1;shadow=1;glass=0;sketch=0;gradientColor=#ffffff;strokeColor=default;" parent="brHJOATeAmiPBkFJqzlV-1" vertex="1">
          <mxGeometry x="114" y="148" width="30" height="60" as="geometry" />
        </mxCell>
        <mxCell id="brHJOATeAmiPBkFJqzlV-26" style="edgeStyle=orthogonalEdgeStyle;rounded=1;sketch=0;orthogonalLoop=1;jettySize=auto;html=1;exitX=0.5;exitY=0;exitDx=0;exitDy=0;exitPerimeter=0;entryX=0;entryY=1;entryDx=0;entryDy=0;fontSize=10;endArrow=block;endFill=0;" parent="brHJOATeAmiPBkFJqzlV-1" source="brHJOATeAmiPBkFJqzlV-29" target="brHJOATeAmiPBkFJqzlV-3" edge="1">
          <mxGeometry relative="1" as="geometry">
            <Array as="points">
              <mxPoint x="141" y="387" />
              <mxPoint x="268" y="387" />
              <mxPoint x="268" y="171" />
            </Array>
          </mxGeometry>
        </mxCell>
        <mxCell id="brHJOATeAmiPBkFJqzlV-27" style="edgeStyle=orthogonalEdgeStyle;rounded=1;sketch=0;orthogonalLoop=1;jettySize=auto;html=1;exitX=1;exitY=0.3333333333333333;exitDx=0;exitDy=0;exitPerimeter=0;entryX=0.004;entryY=0.417;entryDx=0;entryDy=0;entryPerimeter=0;fontSize=10;endArrow=blockThin;endFill=1;" parent="brHJOATeAmiPBkFJqzlV-1" source="brHJOATeAmiPBkFJqzlV-29" target="brHJOATeAmiPBkFJqzlV-5" edge="1">
          <mxGeometry relative="1" as="geometry" />
        </mxCell>
        <mxCell id="brHJOATeAmiPBkFJqzlV-28" style="edgeStyle=orthogonalEdgeStyle;rounded=1;sketch=0;orthogonalLoop=1;jettySize=auto;html=1;exitX=0.75;exitY=0.1;exitDx=0;exitDy=0;exitPerimeter=0;entryX=0;entryY=0.5;entryDx=0;entryDy=0;fontSize=10;endArrow=blockThin;endFill=1;" parent="brHJOATeAmiPBkFJqzlV-1" source="brHJOATeAmiPBkFJqzlV-29" target="brHJOATeAmiPBkFJqzlV-4" edge="1">
          <mxGeometry relative="1" as="geometry">
            <Array as="points">
              <mxPoint x="198" y="572" />
              <mxPoint x="198" y="397" />
            </Array>
          </mxGeometry>
        </mxCell>
        <mxCell id="brHJOATeAmiPBkFJqzlV-29" value="Usuario" style="shape=umlActor;verticalLabelPosition=bottom;verticalAlign=top;html=1;shadow=1;glass=0;sketch=0;gradientColor=#ffffff;" parent="brHJOATeAmiPBkFJqzlV-1" vertex="1">
          <mxGeometry x="125.5" y="566" width="30" height="60" as="geometry" />
        </mxCell>
        <mxCell id="brHJOATeAmiPBkFJqzlV-30" style="edgeStyle=orthogonalEdgeStyle;rounded=1;sketch=0;orthogonalLoop=1;jettySize=auto;html=1;exitX=0.5;exitY=0;exitDx=0;exitDy=0;exitPerimeter=0;entryX=1;entryY=0.5;entryDx=0;entryDy=0;fontSize=10;endArrow=block;endFill=0;" parent="brHJOATeAmiPBkFJqzlV-1" source="brHJOATeAmiPBkFJqzlV-32" target="brHJOATeAmiPBkFJqzlV-14" edge="1">
          <mxGeometry relative="1" as="geometry" />
        </mxCell>
        <mxCell id="brHJOATeAmiPBkFJqzlV-31" style="edgeStyle=orthogonalEdgeStyle;rounded=1;sketch=0;orthogonalLoop=1;jettySize=auto;html=1;exitX=0;exitY=0.3333333333333333;exitDx=0;exitDy=0;exitPerimeter=0;entryX=1;entryY=0.5;entryDx=0;entryDy=0;fontSize=10;endArrow=block;endFill=0;" parent="brHJOATeAmiPBkFJqzlV-1" source="brHJOATeAmiPBkFJqzlV-32" target="brHJOATeAmiPBkFJqzlV-12" edge="1">
          <mxGeometry relative="1" as="geometry" />
        </mxCell>
        <mxCell id="brHJOATeAmiPBkFJqzlV-32" value="EAN &amp;lt;&amp;lt;Sistema&amp;gt;&amp;gt;" style="shape=umlActor;verticalLabelPosition=bottom;verticalAlign=top;html=1;shadow=1;glass=0;sketch=0;gradientColor=#ffffff;" parent="brHJOATeAmiPBkFJqzlV-1" vertex="1">
          <mxGeometry x="830.5" y="330" width="30" height="60" as="geometry" />
        </mxCell>
        <mxCell id="brHJOATeAmiPBkFJqzlV-33" value="Estudiante" style="shape=umlActor;verticalLabelPosition=bottom;verticalAlign=top;html=1;shadow=1;glass=0;sketch=0;gradientColor=#ffffff;" parent="brHJOATeAmiPBkFJqzlV-1" vertex="1">
          <mxGeometry x="75" y="707" width="30" height="60" as="geometry" />
        </mxCell>
        <mxCell id="brHJOATeAmiPBkFJqzlV-34" value="Docente" style="shape=umlActor;verticalLabelPosition=bottom;verticalAlign=top;html=1;shadow=1;glass=0;sketch=0;gradientColor=#ffffff;" parent="brHJOATeAmiPBkFJqzlV-1" vertex="1">
          <mxGeometry x="176" y="710" width="30" height="60" as="geometry" />
        </mxCell>
        <mxCell id="brHJOATeAmiPBkFJqzlV-35" value="" style="endArrow=block;html=1;fontSize=10;exitX=0.5;exitY=0;exitDx=0;exitDy=0;exitPerimeter=0;endFill=0;" parent="brHJOATeAmiPBkFJqzlV-1" source="brHJOATeAmiPBkFJqzlV-33" edge="1">
          <mxGeometry width="50" height="50" relative="1" as="geometry">
            <mxPoint x="-182" y="722" as="sourcePoint" />
            <mxPoint x="117" y="653" as="targetPoint" />
          </mxGeometry>
        </mxCell>
        <mxCell id="brHJOATeAmiPBkFJqzlV-36" value="" style="endArrow=block;html=1;fontSize=10;exitX=0.5;exitY=0;exitDx=0;exitDy=0;exitPerimeter=0;endFill=0;" parent="brHJOATeAmiPBkFJqzlV-1" edge="1">
          <mxGeometry width="50" height="50" relative="1" as="geometry">
            <mxPoint x="188" y="711.0000000000002" as="sourcePoint" />
            <mxPoint x="166" y="656" as="targetPoint" />
          </mxGeometry>
        </mxCell>
      </root>
    </mxGraphModel>
  </diagram>
  <diagram name="CDU V3" id="zsrjX44megHncQwmWp_R">
    <mxGraphModel dx="1422" dy="762" grid="0" gridSize="10" guides="1" tooltips="1" connect="1" arrows="1" fold="1" page="1" pageScale="1" pageWidth="1654" pageHeight="2336" math="0" shadow="0">
      <root>
        <mxCell id="7NDht4SuThROiSGOzJVi-0" />
        <mxCell id="7NDht4SuThROiSGOzJVi-1" parent="7NDht4SuThROiSGOzJVi-0" />
        <mxCell id="7NDht4SuThROiSGOzJVi-2" value="Sistema PNG" style="swimlane;swimlaneFillColor=default;fillColor=#bac8d3;shadow=1;glass=0;strokeColor=#23445d;autosize=1;sketch=0;" parent="7NDht4SuThROiSGOzJVi-1" vertex="1">
          <mxGeometry x="255" y="88" width="454" height="882" as="geometry" />
        </mxCell>
        <mxCell id="7NDht4SuThROiSGOzJVi-3" value="Login" style="ellipse;whiteSpace=wrap;html=1;shadow=1;verticalAlign=middle;gradientColor=#ffffff;glass=0;sketch=0;fontSize=10;" parent="7NDht4SuThROiSGOzJVi-2" vertex="1">
          <mxGeometry x="49" y="60" width="120" height="60" as="geometry" />
        </mxCell>
        <mxCell id="7NDht4SuThROiSGOzJVi-4" value="&lt;u style=&quot;font-size: 10px;&quot;&gt;&lt;span lang=&quot;ES&quot; style=&quot;font-size: 10px; line-height: 107%; font-family: calibri, sans-serif;&quot;&gt;Visualizar&lt;/span&gt;&lt;/u&gt;&lt;span lang=&quot;ES&quot; style=&quot;font-size: 10px; line-height: 107%; font-family: calibri, sans-serif;&quot;&gt; su información personal&lt;/span&gt;" style="ellipse;whiteSpace=wrap;html=1;shadow=1;verticalAlign=middle;gradientColor=#ffffff;glass=0;sketch=0;fontSize=10;" parent="7NDht4SuThROiSGOzJVi-2" vertex="1">
          <mxGeometry x="45" y="362" width="120" height="60" as="geometry" />
        </mxCell>
        <mxCell id="7NDht4SuThROiSGOzJVi-5" value="&lt;u style=&quot;font-size: 10px;&quot;&gt;&lt;span lang=&quot;ES&quot; style=&quot;font-size: 10px; line-height: 107%; font-family: calibri, sans-serif;&quot;&gt;Visualizar&lt;/span&gt;&lt;/u&gt;&lt;span lang=&quot;ES&quot; style=&quot;font-size: 10px; line-height: 107%; font-family: calibri, sans-serif;&quot;&gt; las materias que tiene matriculadas&lt;/span&gt;" style="ellipse;whiteSpace=wrap;html=1;shadow=1;verticalAlign=middle;gradientColor=#ffffff;glass=0;sketch=0;fontSize=10;" parent="7NDht4SuThROiSGOzJVi-2" vertex="1">
          <mxGeometry x="45" y="432" width="120" height="60" as="geometry" />
        </mxCell>
        <mxCell id="7NDht4SuThROiSGOzJVi-6" value="&lt;font face=&quot;calibri, sans-serif&quot; style=&quot;font-size: 10px&quot;&gt;&lt;u&gt;Visualizar&lt;/u&gt; la nota obtenida en cada materia&lt;/font&gt;" style="ellipse;whiteSpace=wrap;html=1;shadow=1;verticalAlign=middle;gradientColor=#ffffff;glass=0;sketch=0;fontSize=10;" parent="7NDht4SuThROiSGOzJVi-2" vertex="1">
          <mxGeometry x="45" y="572" width="120" height="60" as="geometry" />
        </mxCell>
        <mxCell id="7NDht4SuThROiSGOzJVi-7" value="&lt;font face=&quot;calibri, sans-serif&quot; style=&quot;font-size: 10px&quot;&gt;&lt;u&gt;Visualizar&lt;/u&gt; el detalle de las actividades presentadas&lt;/font&gt;" style="ellipse;whiteSpace=wrap;html=1;shadow=1;verticalAlign=middle;gradientColor=#ffffff;glass=0;sketch=0;fontSize=10;" parent="7NDht4SuThROiSGOzJVi-2" vertex="1">
          <mxGeometry x="45" y="502" width="120" height="60" as="geometry" />
        </mxCell>
        <mxCell id="7NDht4SuThROiSGOzJVi-8" value="&lt;font style=&quot;font-size: 10px&quot;&gt;&lt;u&gt;&lt;span lang=&quot;ES&quot; style=&quot;line-height: 107% ; font-family: &amp;#34;calibri&amp;#34; , sans-serif&quot;&gt;Registrar&lt;br/&gt;&lt;/span&gt;&lt;/u&gt;&lt;span lang=&quot;ES&quot; style=&quot;line-height: 107% ; font-family: &amp;#34;calibri&amp;#34; , sans-serif&quot;&gt;actividades en cada una de&lt;br/&gt;las materias que tiene asignadas&lt;/span&gt;&lt;/font&gt;" style="ellipse;whiteSpace=wrap;html=1;shadow=1;verticalAlign=middle;gradientColor=#ffffff;glass=0;sketch=0;fontSize=10;" parent="7NDht4SuThROiSGOzJVi-2" vertex="1">
          <mxGeometry x="45" y="671" width="120" height="61" as="geometry" />
        </mxCell>
        <mxCell id="7NDht4SuThROiSGOzJVi-9" value="&lt;font style=&quot;font-size: 10px&quot;&gt;&lt;u&gt;&lt;span lang=&quot;ES&quot; style=&quot;line-height: 107% ; font-family: &amp;#34;calibri&amp;#34; , sans-serif&quot;&gt;Calificar&lt;/span&gt;&lt;/u&gt;&lt;span lang=&quot;ES&quot; style=&quot;line-height: 107% ; font-family: &amp;#34;calibri&amp;#34; , sans-serif&quot;&gt; dichas actividades y realimentar&lt;/span&gt;&lt;/font&gt;&lt;span lang=&quot;ES&quot; style=&quot;font-size: 11.0pt ; line-height: 107% ; font-family: &amp;#34;calibri&amp;#34; , sans-serif&quot;&gt;&amp;nbsp;&lt;/span&gt;" style="ellipse;whiteSpace=wrap;html=1;shadow=1;verticalAlign=middle;gradientColor=#ffffff;glass=0;sketch=0;fontSize=10;" parent="7NDht4SuThROiSGOzJVi-2" vertex="1">
          <mxGeometry x="45" y="752" width="120" height="60" as="geometry" />
        </mxCell>
        <mxCell id="7NDht4SuThROiSGOzJVi-10" value="&lt;font style=&quot;font-size: 10px&quot;&gt;Generar nota final de la materia&lt;/font&gt;" style="ellipse;whiteSpace=wrap;html=1;shadow=1;verticalAlign=middle;gradientColor=#ffffff;glass=0;sketch=0;" parent="7NDht4SuThROiSGOzJVi-2" vertex="1">
          <mxGeometry x="265" y="752" width="120" height="60" as="geometry" />
        </mxCell>
        <mxCell id="7NDht4SuThROiSGOzJVi-13" value="&lt;font face=&quot;calibri, sans-serif&quot;&gt;Validar datos de acceso&lt;/font&gt;" style="ellipse;whiteSpace=wrap;html=1;shadow=1;verticalAlign=middle;gradientColor=#ffffff;glass=0;sketch=0;fontSize=10;" parent="7NDht4SuThROiSGOzJVi-2" vertex="1">
          <mxGeometry x="272" y="59.5" width="120" height="61" as="geometry" />
        </mxCell>
        <mxCell id="7NDht4SuThROiSGOzJVi-14" value="&amp;lt;&amp;lt;Include&amp;gt;&amp;gt;" style="edgeStyle=orthogonalEdgeStyle;rounded=1;sketch=0;orthogonalLoop=1;jettySize=auto;html=1;dashed=1;exitX=1;exitY=0.5;exitDx=0;exitDy=0;entryX=0;entryY=0.5;entryDx=0;entryDy=0;endArrow=open;endFill=0;" parent="7NDht4SuThROiSGOzJVi-2" source="7NDht4SuThROiSGOzJVi-3" target="7NDht4SuThROiSGOzJVi-13" edge="1">
          <mxGeometry x="0.0097" y="13" relative="1" as="geometry">
            <mxPoint x="318" y="584" as="sourcePoint" />
            <mxPoint x="284" y="159" as="targetPoint" />
            <Array as="points" />
            <mxPoint as="offset" />
          </mxGeometry>
        </mxCell>
        <mxCell id="7NDht4SuThROiSGOzJVi-15" value="El proceso de Login requiere la verificación para completarse" style="text;html=1;strokeColor=none;fillColor=none;align=center;verticalAlign=middle;whiteSpace=wrap;rounded=0;shadow=1;glass=0;sketch=0;fontSize=10;" parent="7NDht4SuThROiSGOzJVi-2" vertex="1">
          <mxGeometry x="159" y="102" width="121" height="37" as="geometry" />
        </mxCell>
        <mxCell id="_WGZ-BMDTOOxxBtFKSl2-0" value="&lt;font face=&quot;calibri, sans-serif&quot;&gt;Registra Docentes&lt;/font&gt;" style="ellipse;whiteSpace=wrap;html=1;shadow=1;verticalAlign=middle;gradientColor=#ffffff;glass=0;sketch=0;fontSize=10;" parent="7NDht4SuThROiSGOzJVi-2" vertex="1">
          <mxGeometry x="45" y="132" width="120" height="60" as="geometry" />
        </mxCell>
        <mxCell id="_WGZ-BMDTOOxxBtFKSl2-1" value="&lt;font face=&quot;calibri, sans-serif&quot;&gt;Registra estudiantes&lt;/font&gt;" style="ellipse;whiteSpace=wrap;html=1;shadow=1;verticalAlign=middle;gradientColor=#ffffff;glass=0;sketch=0;fontSize=10;" parent="7NDht4SuThROiSGOzJVi-2" vertex="1">
          <mxGeometry x="48" y="202" width="120" height="60" as="geometry" />
        </mxCell>
        <mxCell id="_WGZ-BMDTOOxxBtFKSl2-4" value="&lt;font face=&quot;calibri, sans-serif&quot;&gt;Registra asignaturas&lt;/font&gt;" style="ellipse;whiteSpace=wrap;html=1;shadow=1;verticalAlign=middle;gradientColor=#ffffff;glass=0;sketch=0;fontSize=10;" parent="7NDht4SuThROiSGOzJVi-2" vertex="1">
          <mxGeometry x="48" y="272" width="120" height="60" as="geometry" />
        </mxCell>
        <mxCell id="e7hyuEXRGM8saEDaizUE-2" value="&amp;lt;&amp;lt;Include&amp;gt;&amp;gt;" style="edgeStyle=orthogonalEdgeStyle;rounded=1;sketch=0;orthogonalLoop=1;jettySize=auto;html=1;dashed=1;exitX=0;exitY=0.5;exitDx=0;exitDy=0;entryX=1;entryY=0.5;entryDx=0;entryDy=0;endArrow=open;endFill=0;" parent="7NDht4SuThROiSGOzJVi-2" source="7NDht4SuThROiSGOzJVi-10" target="7NDht4SuThROiSGOzJVi-9" edge="1">
          <mxGeometry y="-20" relative="1" as="geometry">
            <mxPoint x="162" y="832" as="sourcePoint" />
            <mxPoint x="265" y="832" as="targetPoint" />
            <Array as="points" />
            <mxPoint as="offset" />
          </mxGeometry>
        </mxCell>
        <mxCell id="e7hyuEXRGM8saEDaizUE-3" value="La nota final corresponde al promedio de las actividades calificadas" style="text;html=1;strokeColor=none;fillColor=none;align=center;verticalAlign=middle;whiteSpace=wrap;rounded=0;shadow=1;glass=0;sketch=0;fontSize=10;" parent="7NDht4SuThROiSGOzJVi-2" vertex="1">
          <mxGeometry x="151" y="802" width="121" height="37" as="geometry" />
        </mxCell>
        <mxCell id="9jq1KgEvl0ypoKJBgGzx-5" value="&amp;lt;&amp;lt;Include&amp;gt;&amp;gt;" style="endArrow=open;endSize=12;dashed=1;html=1;exitX=1;exitY=0.5;exitDx=0;exitDy=0;entryX=0.5;entryY=0;entryDx=0;entryDy=0;" parent="7NDht4SuThROiSGOzJVi-2" source="7NDht4SuThROiSGOzJVi-6" target="7NDht4SuThROiSGOzJVi-10" edge="1">
          <mxGeometry width="160" relative="1" as="geometry">
            <mxPoint x="275" y="602" as="sourcePoint" />
            <mxPoint x="435" y="602" as="targetPoint" />
          </mxGeometry>
        </mxCell>
        <mxCell id="_WGZ-BMDTOOxxBtFKSl2-6" style="rounded=0;orthogonalLoop=1;jettySize=auto;html=1;exitX=0.5;exitY=0.5;exitDx=0;exitDy=0;exitPerimeter=0;entryX=0;entryY=0.5;entryDx=0;entryDy=0;" parent="7NDht4SuThROiSGOzJVi-1" source="7NDht4SuThROiSGOzJVi-17" target="_WGZ-BMDTOOxxBtFKSl2-0" edge="1">
          <mxGeometry relative="1" as="geometry" />
        </mxCell>
        <mxCell id="_WGZ-BMDTOOxxBtFKSl2-9" style="edgeStyle=none;rounded=0;orthogonalLoop=1;jettySize=auto;html=1;exitX=0.5;exitY=0.5;exitDx=0;exitDy=0;exitPerimeter=0;entryX=0;entryY=0.5;entryDx=0;entryDy=0;" parent="7NDht4SuThROiSGOzJVi-1" source="7NDht4SuThROiSGOzJVi-17" target="_WGZ-BMDTOOxxBtFKSl2-1" edge="1">
          <mxGeometry relative="1" as="geometry">
            <mxPoint x="310" y="360" as="targetPoint" />
          </mxGeometry>
        </mxCell>
        <mxCell id="_WGZ-BMDTOOxxBtFKSl2-10" style="edgeStyle=none;rounded=0;orthogonalLoop=1;jettySize=auto;html=1;exitX=0.5;exitY=0.5;exitDx=0;exitDy=0;exitPerimeter=0;entryX=0;entryY=0.5;entryDx=0;entryDy=0;" parent="7NDht4SuThROiSGOzJVi-1" source="7NDht4SuThROiSGOzJVi-17" target="_WGZ-BMDTOOxxBtFKSl2-4" edge="1">
          <mxGeometry relative="1" as="geometry" />
        </mxCell>
        <mxCell id="_WGZ-BMDTOOxxBtFKSl2-14" style="edgeStyle=none;rounded=0;orthogonalLoop=1;jettySize=auto;html=1;exitX=0.5;exitY=0.5;exitDx=0;exitDy=0;exitPerimeter=0;entryX=0;entryY=0.5;entryDx=0;entryDy=0;" parent="7NDht4SuThROiSGOzJVi-1" source="7NDht4SuThROiSGOzJVi-17" target="7NDht4SuThROiSGOzJVi-3" edge="1">
          <mxGeometry relative="1" as="geometry" />
        </mxCell>
        <mxCell id="7NDht4SuThROiSGOzJVi-17" value="Super-administrador" style="shape=umlActor;verticalLabelPosition=bottom;verticalAlign=top;html=1;shadow=1;glass=0;sketch=0;gradientColor=#ffffff;strokeColor=default;" parent="7NDht4SuThROiSGOzJVi-1" vertex="1">
          <mxGeometry x="124" y="170" width="30" height="60" as="geometry" />
        </mxCell>
        <mxCell id="_WGZ-BMDTOOxxBtFKSl2-12" style="edgeStyle=none;rounded=0;orthogonalLoop=1;jettySize=auto;html=1;exitX=0.5;exitY=0.5;exitDx=0;exitDy=0;exitPerimeter=0;entryX=0;entryY=0.5;entryDx=0;entryDy=0;" parent="7NDht4SuThROiSGOzJVi-1" source="7NDht4SuThROiSGOzJVi-19" target="7NDht4SuThROiSGOzJVi-3" edge="1">
          <mxGeometry relative="1" as="geometry" />
        </mxCell>
        <mxCell id="_WGZ-BMDTOOxxBtFKSl2-17" style="edgeStyle=none;rounded=0;orthogonalLoop=1;jettySize=auto;html=1;exitX=0.5;exitY=0.5;exitDx=0;exitDy=0;exitPerimeter=0;entryX=0;entryY=0.5;entryDx=0;entryDy=0;" parent="7NDht4SuThROiSGOzJVi-1" source="7NDht4SuThROiSGOzJVi-19" target="7NDht4SuThROiSGOzJVi-4" edge="1">
          <mxGeometry relative="1" as="geometry" />
        </mxCell>
        <mxCell id="_WGZ-BMDTOOxxBtFKSl2-18" style="edgeStyle=none;rounded=0;orthogonalLoop=1;jettySize=auto;html=1;exitX=0.5;exitY=0.5;exitDx=0;exitDy=0;exitPerimeter=0;entryX=0.017;entryY=0.4;entryDx=0;entryDy=0;entryPerimeter=0;" parent="7NDht4SuThROiSGOzJVi-1" source="7NDht4SuThROiSGOzJVi-19" target="7NDht4SuThROiSGOzJVi-5" edge="1">
          <mxGeometry relative="1" as="geometry" />
        </mxCell>
        <mxCell id="_WGZ-BMDTOOxxBtFKSl2-19" style="edgeStyle=none;rounded=0;orthogonalLoop=1;jettySize=auto;html=1;exitX=0.5;exitY=0.5;exitDx=0;exitDy=0;exitPerimeter=0;entryX=0;entryY=0.5;entryDx=0;entryDy=0;" parent="7NDht4SuThROiSGOzJVi-1" source="7NDht4SuThROiSGOzJVi-19" target="7NDht4SuThROiSGOzJVi-7" edge="1">
          <mxGeometry relative="1" as="geometry" />
        </mxCell>
        <mxCell id="_WGZ-BMDTOOxxBtFKSl2-20" style="edgeStyle=none;rounded=0;orthogonalLoop=1;jettySize=auto;html=1;exitX=0.5;exitY=0.5;exitDx=0;exitDy=0;exitPerimeter=0;entryX=0;entryY=0.5;entryDx=0;entryDy=0;" parent="7NDht4SuThROiSGOzJVi-1" source="7NDht4SuThROiSGOzJVi-19" target="7NDht4SuThROiSGOzJVi-6" edge="1">
          <mxGeometry relative="1" as="geometry" />
        </mxCell>
        <mxCell id="7NDht4SuThROiSGOzJVi-19" value="Estudiante" style="shape=umlActor;verticalLabelPosition=bottom;verticalAlign=top;html=1;shadow=1;glass=0;sketch=0;gradientColor=#ffffff;" parent="7NDht4SuThROiSGOzJVi-1" vertex="1">
          <mxGeometry x="124" y="530" width="30" height="60" as="geometry" />
        </mxCell>
        <mxCell id="_WGZ-BMDTOOxxBtFKSl2-13" style="edgeStyle=none;rounded=0;orthogonalLoop=1;jettySize=auto;html=1;exitX=0.5;exitY=0.5;exitDx=0;exitDy=0;exitPerimeter=0;entryX=0;entryY=0.5;entryDx=0;entryDy=0;" parent="7NDht4SuThROiSGOzJVi-1" source="7NDht4SuThROiSGOzJVi-20" target="7NDht4SuThROiSGOzJVi-3" edge="1">
          <mxGeometry relative="1" as="geometry" />
        </mxCell>
        <mxCell id="_WGZ-BMDTOOxxBtFKSl2-21" style="edgeStyle=none;rounded=0;orthogonalLoop=1;jettySize=auto;html=1;exitX=0.5;exitY=0.5;exitDx=0;exitDy=0;exitPerimeter=0;" parent="7NDht4SuThROiSGOzJVi-1" source="7NDht4SuThROiSGOzJVi-20" target="7NDht4SuThROiSGOzJVi-8" edge="1">
          <mxGeometry relative="1" as="geometry" />
        </mxCell>
        <mxCell id="_WGZ-BMDTOOxxBtFKSl2-22" style="edgeStyle=none;rounded=0;orthogonalLoop=1;jettySize=auto;html=1;exitX=0.5;exitY=0.5;exitDx=0;exitDy=0;exitPerimeter=0;entryX=0;entryY=0.5;entryDx=0;entryDy=0;" parent="7NDht4SuThROiSGOzJVi-1" source="7NDht4SuThROiSGOzJVi-20" target="7NDht4SuThROiSGOzJVi-9" edge="1">
          <mxGeometry relative="1" as="geometry" />
        </mxCell>
        <mxCell id="7NDht4SuThROiSGOzJVi-20" value="Docente" style="shape=umlActor;verticalLabelPosition=bottom;verticalAlign=top;html=1;shadow=1;glass=0;sketch=0;gradientColor=#ffffff;" parent="7NDht4SuThROiSGOzJVi-1" vertex="1">
          <mxGeometry x="124" y="765" width="30" height="60" as="geometry" />
        </mxCell>
        <mxCell id="_WGZ-BMDTOOxxBtFKSl2-23" style="edgeStyle=none;rounded=0;orthogonalLoop=1;jettySize=auto;html=1;exitX=0.5;exitY=0.5;exitDx=0;exitDy=0;exitPerimeter=0;entryX=1;entryY=0.5;entryDx=0;entryDy=0;" parent="7NDht4SuThROiSGOzJVi-1" source="7NDht4SuThROiSGOzJVi-22" target="7NDht4SuThROiSGOzJVi-13" edge="1">
          <mxGeometry relative="1" as="geometry" />
        </mxCell>
        <mxCell id="e7hyuEXRGM8saEDaizUE-5" style="edgeStyle=none;rounded=0;orthogonalLoop=1;jettySize=auto;html=1;exitX=0.5;exitY=0.5;exitDx=0;exitDy=0;exitPerimeter=0;entryX=1;entryY=0;entryDx=0;entryDy=0;" parent="7NDht4SuThROiSGOzJVi-1" source="7NDht4SuThROiSGOzJVi-22" target="7NDht4SuThROiSGOzJVi-10" edge="1">
          <mxGeometry relative="1" as="geometry" />
        </mxCell>
        <mxCell id="7NDht4SuThROiSGOzJVi-22" value="EAN &amp;lt;&amp;lt;Sistema&amp;gt;&amp;gt;" style="shape=umlActor;verticalLabelPosition=bottom;verticalAlign=top;html=1;shadow=1;glass=0;sketch=0;gradientColor=#ffffff;" parent="7NDht4SuThROiSGOzJVi-1" vertex="1">
          <mxGeometry x="770" y="499" width="30" height="60" as="geometry" />
        </mxCell>
        <mxCell id="7NDht4SuThROiSGOzJVi-28" value="Estudiante" style="shape=umlActor;verticalLabelPosition=bottom;verticalAlign=top;html=1;shadow=1;glass=0;sketch=0;fillColor=#fff2cc;strokeColor=#d6b656;" parent="7NDht4SuThROiSGOzJVi-1" vertex="1">
          <mxGeometry x="950" y="520" width="30" height="60" as="geometry" />
        </mxCell>
        <mxCell id="7NDht4SuThROiSGOzJVi-29" value="Docente" style="shape=umlActor;verticalLabelPosition=bottom;verticalAlign=top;html=1;shadow=1;glass=0;sketch=0;fillColor=#fff2cc;strokeColor=#d6b656;" parent="7NDht4SuThROiSGOzJVi-1" vertex="1">
          <mxGeometry x="950" y="407" width="30" height="60" as="geometry" />
        </mxCell>
        <mxCell id="7NDht4SuThROiSGOzJVi-30" value="Usuario" style="shape=umlActor;verticalLabelPosition=bottom;verticalAlign=top;html=1;shadow=1;glass=0;sketch=0;strokeColor=#d6b656;fillColor=#fff2cc;" parent="7NDht4SuThROiSGOzJVi-1" vertex="1">
          <mxGeometry x="950" y="170" width="30" height="60" as="geometry" />
        </mxCell>
        <mxCell id="7NDht4SuThROiSGOzJVi-31" value="" style="endArrow=block;html=1;fontSize=10;endFill=0;entryX=0.5;entryY=0;entryDx=0;entryDy=0;entryPerimeter=0;fillColor=#fff2cc;strokeColor=#d6b656;" parent="7NDht4SuThROiSGOzJVi-1" target="7NDht4SuThROiSGOzJVi-36" edge="1">
          <mxGeometry width="50" height="50" relative="1" as="geometry">
            <mxPoint x="964" y="250" as="sourcePoint" />
            <mxPoint x="947" y="353" as="targetPoint" />
          </mxGeometry>
        </mxCell>
        <mxCell id="7NDht4SuThROiSGOzJVi-36" value="Super-administrador" style="shape=umlActor;verticalLabelPosition=bottom;verticalAlign=top;html=1;shadow=1;glass=0;sketch=0;strokeColor=#d6b656;fillColor=#fff2cc;" parent="7NDht4SuThROiSGOzJVi-1" vertex="1">
          <mxGeometry x="950" y="290" width="30" height="60" as="geometry" />
        </mxCell>
        <mxCell id="7NDht4SuThROiSGOzJVi-37" value="" style="endArrow=block;html=1;fontSize=10;endFill=0;entryX=0.5;entryY=0;entryDx=0;entryDy=0;entryPerimeter=0;fillColor=#fff2cc;strokeColor=#d6b656;" parent="7NDht4SuThROiSGOzJVi-1" source="7NDht4SuThROiSGOzJVi-36" target="7NDht4SuThROiSGOzJVi-29" edge="1">
          <mxGeometry width="50" height="50" relative="1" as="geometry">
            <mxPoint x="964" y="380" as="sourcePoint" />
            <mxPoint x="975" y="300" as="targetPoint" />
          </mxGeometry>
        </mxCell>
        <mxCell id="7NDht4SuThROiSGOzJVi-38" value="" style="endArrow=block;html=1;fontSize=10;endFill=0;entryX=0.5;entryY=0;entryDx=0;entryDy=0;entryPerimeter=0;fillColor=#fff2cc;strokeColor=#d6b656;" parent="7NDht4SuThROiSGOzJVi-1" edge="1">
          <mxGeometry width="50" height="50" relative="1" as="geometry">
            <mxPoint x="964.5" y="463" as="sourcePoint" />
            <mxPoint x="964.5" y="520" as="targetPoint" />
          </mxGeometry>
        </mxCell>
      </root>
    </mxGraphModel>
  </diagram>
</mxfile>
